<svg width="70" height="70" viewBox="0 0 70 70" fill="none" xmlns="http://www.w3.org/2000/svg">
<rect x="1" y="1" width="68" height="68" rx="34" fill="#341327"/>
<rect x="1" y="1" width="68" height="68" rx="34" stroke="white" stroke-width="2"/>
<path d="M42.9048 41.6667C43.9524 41.7302 44.9921 41.6746 46.0238 41.5C47.0556 41.3254 48.0476 41.0317 49 40.619C48.3333 44.7778 46.4127 48.2143 43.2381 50.9286C40.0635 53.6429 36.3651 55 32.1429 55C29.7619 55 27.5317 54.5476 25.4524 53.6429C23.373 52.7381 21.5635 51.5159 20.0238 49.9762C18.4841 48.4365 17.2619 46.627 16.3571 44.5476C15.4524 42.4683 15 40.2381 15 37.8571C15 33.6349 16.3571 29.9365 19.0714 26.7619C21.7857 23.5873 25.2222 21.6667 29.381 21C28.9683 21.9524 28.6746 22.9444 28.5 23.9762C28.3254 25.0079 28.2698 26.0476 28.3333 27.0952C26.0476 27.8889 24.2063 29.2698 22.8095 31.2381C21.4127 33.2064 20.7143 35.4127 20.7143 37.8571C20.7143 41.0317 21.8254 43.7302 24.0476 45.9524C26.2698 48.1746 28.9683 49.2857 32.1429 49.2857C34.5873 49.2857 36.7937 48.5873 38.7619 47.1905C40.7302 45.7936 42.1111 43.9524 42.9048 41.6667ZM43.5714 15C46.746 15 49.4444 16.1111 51.6667 18.3333C53.8889 20.5556 55 23.254 55 26.4286C55 29.6032 53.8889 32.3016 51.6667 34.5238C49.4444 36.746 46.746 37.8571 43.5714 37.8571C40.3968 37.8571 37.6984 36.746 35.4762 34.5238C33.254 32.3016 32.1429 29.6032 32.1429 26.4286C32.1429 23.254 33.254 20.5556 35.4762 18.3333C37.6984 16.1111 40.3968 15 43.5714 15ZM43.5714 32.1429C45.1587 32.1429 46.5079 31.5873 47.619 30.4762C48.7302 29.3651 49.2857 28.0159 49.2857 26.4286C49.2857 24.8413 48.7302 23.4921 47.619 22.381C46.5079 21.2698 45.1587 20.7143 43.5714 20.7143C41.9841 20.7143 40.6349 21.2698 39.5238 22.381C38.4127 23.4921 37.8571 24.8413 37.8571 26.4286C37.8571 28.0159 38.4127 29.3651 39.5238 30.4762C40.6349 31.5873 41.9841 32.1429 43.5714 32.1429Z" fill="white"/>
</svg>
