<svg width="280" height="70" viewBox="0 0 280 70" fill="none" xmlns="http://www.w3.org/2000/svg">
<rect x="1" y="1" width="68" height="68" rx="34" fill="#341327"/>
<rect x="1" y="1" width="68" height="68" rx="34" stroke="white" stroke-width="2"/>
<path d="M42.9048 41.6667C43.9524 41.7302 44.9921 41.6746 46.0238 41.5C47.0556 41.3254 48.0476 41.0317 49 40.619C48.3333 44.7778 46.4127 48.2143 43.2381 50.9286C40.0635 53.6429 36.3651 55 32.1429 55C29.7619 55 27.5317 54.5476 25.4524 53.6429C23.373 52.7381 21.5635 51.5159 20.0238 49.9762C18.4841 48.4365 17.2619 46.627 16.3571 44.5476C15.4524 42.4683 15 40.2381 15 37.8571C15 33.6349 16.3571 29.9365 19.0714 26.7619C21.7857 23.5873 25.2222 21.6667 29.381 21C28.9683 21.9524 28.6746 22.9444 28.5 23.9762C28.3254 25.0079 28.2698 26.0476 28.3333 27.0952C26.0476 27.8889 24.2063 29.2698 22.8095 31.2381C21.4127 33.2064 20.7143 35.4127 20.7143 37.8571C20.7143 41.0317 21.8254 43.7302 24.0476 45.9524C26.2698 48.1746 28.9683 49.2857 32.1429 49.2857C34.5873 49.2857 36.7937 48.5873 38.7619 47.1905C40.7302 45.7936 42.1111 43.9524 42.9048 41.6667ZM43.5714 15C46.746 15 49.4444 16.1111 51.6667 18.3333C53.8889 20.5556 55 23.254 55 26.4286C55 29.6032 53.8889 32.3016 51.6667 34.5238C49.4444 36.746 46.746 37.8571 43.5714 37.8571C40.3968 37.8571 37.6984 36.746 35.4762 34.5238C33.254 32.3016 32.1429 29.6032 32.1429 26.4286C32.1429 23.254 33.254 20.5556 35.4762 18.3333C37.6984 16.1111 40.3968 15 43.5714 15ZM43.5714 32.1429C45.1587 32.1429 46.5079 31.5873 47.619 30.4762C48.7302 29.3651 49.2857 28.0159 49.2857 26.4286C49.2857 24.8413 48.7302 23.4921 47.619 22.381C46.5079 21.2698 45.1587 20.7143 43.5714 20.7143C41.9841 20.7143 40.6349 21.2698 39.5238 22.381C38.4127 23.4921 37.8571 24.8413 37.8571 26.4286C37.8571 28.0159 38.4127 29.3651 39.5238 30.4762C40.6349 31.5873 41.9841 32.1429 43.5714 32.1429Z" fill="white"/>
<path d="M94.2756 48V21.8182H111.611V26.3821H99.8111V32.6207H110.46V37.1847H99.8111V48H94.2756ZM122.739 48.3835C120.719 48.3835 118.981 47.9744 117.523 47.1562C116.075 46.3295 114.958 45.1619 114.174 43.6534C113.39 42.1364 112.998 40.3423 112.998 38.2713C112.998 36.2514 113.39 34.4787 114.174 32.9531C114.958 31.4276 116.062 30.2386 117.485 29.3864C118.917 28.5341 120.596 28.108 122.522 28.108C123.817 28.108 125.023 28.3168 126.14 28.7344C127.265 29.1435 128.245 29.7614 129.08 30.5881C129.924 31.4148 130.58 32.4545 131.049 33.7074C131.518 34.9517 131.752 36.4091 131.752 38.0795V39.5753H115.171V36.2003H126.626C126.626 35.4162 126.455 34.7216 126.114 34.1165C125.773 33.5114 125.3 33.0384 124.695 32.6974C124.099 32.348 123.404 32.1733 122.612 32.1733C121.785 32.1733 121.052 32.3651 120.413 32.7486C119.782 33.1236 119.288 33.6307 118.93 34.2699C118.572 34.9006 118.388 35.6037 118.38 36.3793V39.5881C118.38 40.5597 118.559 41.3991 118.917 42.1065C119.283 42.8139 119.799 43.3594 120.464 43.7429C121.129 44.1264 121.917 44.3182 122.829 44.3182C123.434 44.3182 123.988 44.233 124.491 44.0625C124.994 43.892 125.424 43.6364 125.782 43.2955C126.14 42.9545 126.413 42.5369 126.6 42.0426L131.637 42.375C131.381 43.5852 130.857 44.642 130.065 45.5455C129.281 46.4403 128.266 47.1392 127.022 47.642C125.786 48.1364 124.359 48.3835 122.739 48.3835ZM145.751 28.3636V32.4545H133.925V28.3636H145.751ZM136.61 23.6591H142.056V41.9659C142.056 42.4687 142.133 42.8608 142.286 43.142C142.44 43.4148 142.653 43.6065 142.925 43.7173C143.207 43.8281 143.531 43.8835 143.897 43.8835C144.153 43.8835 144.408 43.8622 144.664 43.8196C144.92 43.7685 145.116 43.7301 145.252 43.7045L146.109 47.7571C145.836 47.8423 145.452 47.9403 144.958 48.0511C144.464 48.1705 143.863 48.2429 143.156 48.2685C141.843 48.3196 140.692 48.1449 139.704 47.7443C138.724 47.3437 137.961 46.7216 137.415 45.8778C136.87 45.0341 136.602 43.9687 136.61 42.6818V23.6591ZM157.96 48.3835C155.948 48.3835 154.218 47.9574 152.769 47.1051C151.329 46.2443 150.221 45.0511 149.445 43.5256C148.678 42 148.295 40.2443 148.295 38.2585C148.295 36.2472 148.683 34.483 149.458 32.9659C150.242 31.4403 151.354 30.2514 152.795 29.3991C154.235 28.5384 155.948 28.108 157.934 28.108C159.647 28.108 161.147 28.419 162.434 29.0412C163.721 29.6634 164.739 30.5369 165.489 31.6619C166.239 32.7869 166.653 34.108 166.729 35.625H161.59C161.445 34.6449 161.062 33.8565 160.44 33.2599C159.826 32.6548 159.021 32.3523 158.023 32.3523C157.18 32.3523 156.442 32.5824 155.812 33.0426C155.19 33.4943 154.704 34.1548 154.354 35.0241C154.005 35.8935 153.83 36.946 153.83 38.1818C153.83 39.4347 154.001 40.5 154.342 41.3778C154.691 42.2557 155.181 42.9247 155.812 43.3849C156.442 43.8452 157.18 44.0753 158.023 44.0753C158.646 44.0753 159.204 43.9474 159.698 43.6918C160.201 43.4361 160.614 43.0653 160.938 42.5795C161.271 42.0852 161.488 41.4929 161.59 40.8026H166.729C166.644 42.3026 166.235 43.6236 165.502 44.7656C164.778 45.8991 163.776 46.7855 162.498 47.4247C161.219 48.0639 159.707 48.3835 157.96 48.3835ZM175.662 36.6477V48H170.216V21.8182H175.509V31.8281H175.739C176.182 30.669 176.898 29.7614 177.887 29.1051C178.875 28.4403 180.115 28.108 181.607 28.108C182.971 28.108 184.159 28.4062 185.174 29.0028C186.196 29.5909 186.989 30.4389 187.551 31.5469C188.123 32.6463 188.404 33.9631 188.395 35.4972V48H182.949V36.4688C182.958 35.2585 182.651 34.3168 182.029 33.6435C181.415 32.9702 180.554 32.6335 179.446 32.6335C178.705 32.6335 178.049 32.7912 177.478 33.1065C176.915 33.4219 176.472 33.8821 176.148 34.4872C175.833 35.0838 175.671 35.804 175.662 36.6477ZM192.783 21.8182H199.61L206.82 39.4091H207.127L214.337 21.8182H221.164V48H215.795V30.9588H215.577L208.802 47.8722H205.146L198.37 30.8949H198.153V48H192.783V21.8182ZM231.222 48.3707C229.969 48.3707 228.853 48.1534 227.873 47.7188C226.892 47.2756 226.117 46.6236 225.546 45.7628C224.983 44.8935 224.702 43.8111 224.702 42.5156C224.702 41.4247 224.902 40.5085 225.303 39.767C225.703 39.0256 226.249 38.429 226.939 37.9773C227.63 37.5256 228.414 37.1847 229.292 36.9545C230.178 36.7244 231.107 36.5625 232.078 36.4688C233.221 36.3494 234.141 36.2386 234.84 36.1364C235.539 36.0256 236.046 35.8636 236.361 35.6506C236.676 35.4375 236.834 35.1222 236.834 34.7045V34.6278C236.834 33.8182 236.578 33.1918 236.067 32.7486C235.564 32.3054 234.848 32.0838 233.919 32.0838C232.939 32.0838 232.159 32.3011 231.58 32.7358C231 33.1619 230.617 33.6989 230.429 34.3466L225.392 33.9375C225.648 32.7443 226.151 31.7131 226.901 30.8438C227.651 29.9659 228.618 29.2926 229.803 28.8239C230.996 28.3466 232.377 28.108 233.945 28.108C235.036 28.108 236.08 28.2358 237.077 28.4915C238.083 28.7472 238.973 29.1435 239.749 29.6804C240.533 30.2173 241.151 30.9077 241.603 31.7514C242.054 32.5866 242.28 33.5881 242.28 34.7557V48H237.115V45.277H236.962C236.647 45.8906 236.225 46.4318 235.696 46.9006C235.168 47.3608 234.533 47.723 233.792 47.9872C233.05 48.2429 232.194 48.3707 231.222 48.3707ZM232.782 44.6122C233.583 44.6122 234.29 44.4545 234.904 44.1392C235.517 43.8153 235.999 43.3807 236.348 42.8352C236.698 42.2898 236.873 41.6719 236.873 40.9815V38.8977C236.702 39.0085 236.468 39.1108 236.169 39.2045C235.88 39.2898 235.551 39.3707 235.185 39.4474C234.819 39.5156 234.452 39.5795 234.086 39.6392C233.719 39.6903 233.387 39.7372 233.088 39.7798C232.449 39.8736 231.891 40.0227 231.414 40.2273C230.936 40.4318 230.566 40.7088 230.301 41.0582C230.037 41.3991 229.905 41.8253 229.905 42.3366C229.905 43.0781 230.174 43.6449 230.711 44.0369C231.256 44.4205 231.946 44.6122 232.782 44.6122ZM256.95 28.3636V32.4545H245.125V28.3636H256.95ZM247.809 23.6591H253.255V41.9659C253.255 42.4687 253.332 42.8608 253.485 43.142C253.639 43.4148 253.852 43.6065 254.125 43.7173C254.406 43.8281 254.73 43.8835 255.096 43.8835C255.352 43.8835 255.608 43.8622 255.863 43.8196C256.119 43.7685 256.315 43.7301 256.451 43.7045L257.308 47.7571C257.035 47.8423 256.652 47.9403 256.157 48.0511C255.663 48.1705 255.062 48.2429 254.355 48.2685C253.042 48.3196 251.892 48.1449 250.903 47.7443C249.923 47.3437 249.16 46.7216 248.615 45.8778C248.069 45.0341 247.801 43.9687 247.809 42.6818V23.6591ZM269.235 48.3835C267.216 48.3835 265.477 47.9744 264.02 47.1562C262.571 46.3295 261.454 45.1619 260.67 43.6534C259.886 42.1364 259.494 40.3423 259.494 38.2713C259.494 36.2514 259.886 34.4787 260.67 32.9531C261.454 31.4276 262.558 30.2386 263.981 29.3864C265.413 28.5341 267.092 28.108 269.018 28.108C270.314 28.108 271.52 28.3168 272.636 28.7344C273.761 29.1435 274.741 29.7614 275.576 30.5881C276.42 31.4148 277.076 32.4545 277.545 33.7074C278.014 34.9517 278.248 36.4091 278.248 38.0795V39.5753H261.667V36.2003H273.122C273.122 35.4162 272.951 34.7216 272.61 34.1165C272.27 33.5114 271.797 33.0384 271.191 32.6974C270.595 32.348 269.9 32.1733 269.108 32.1733C268.281 32.1733 267.548 32.3651 266.909 32.7486C266.278 33.1236 265.784 33.6307 265.426 34.2699C265.068 34.9006 264.885 35.6037 264.876 36.3793V39.5881C264.876 40.5597 265.055 41.3991 265.413 42.1065C265.779 42.8139 266.295 43.3594 266.96 43.7429C267.625 44.1264 268.413 44.3182 269.325 44.3182C269.93 44.3182 270.484 44.233 270.987 44.0625C271.49 43.892 271.92 43.6364 272.278 43.2955C272.636 42.9545 272.909 42.5369 273.096 42.0426L278.133 42.375C277.877 43.5852 277.353 44.642 276.561 45.5455C275.777 46.4403 274.762 47.1392 273.518 47.642C272.282 48.1364 270.855 48.3835 269.235 48.3835Z" fill="white"/>
</svg>
